solid Visualization Toolkit generated SLA File
 facet normal 0.99965735124480781 0.026175945106433049 -0
  outer loop
   vertex 0.11500000208616257 0.15000000596046448 -5.9306620725507742e-10
   vertex 0.11500000208616257 0.15000000596046448 -0.031399998813867569
   vertex 0.11497944593429565 0.15078504383563995 -5.9306620725507742e-10
  endloop
 endfacet
 facet normal 0.99965735124480781 0.026175945106433049 0
  outer loop
   vertex 0.11497944593429565 0.15078504383563995 -0.031399998813867569
   vertex 0.11497944593429565 0.15078504383563995 -5.9306620725507742e-10
   vertex 0.11500000208616257 0.15000000596046448 -0.031399998813867569
  endloop
 endfacet
 facet normal 0.99691708182200023 0.078462296496516259 -0
  outer loop
   vertex 0.11497944593429565 0.15078504383563995 -5.9306620725507742e-10
   vertex 0.11497944593429565 0.15078504383563995 -0.031399998813867569
   vertex 0.11491782963275909 0.15156792104244232 -5.9306620725507742e-10
  endloop
 endfacet
 facet normal 0.99691708182200023 0.078462296496516259 0
  outer loop
   vertex 0.11491782963275909 0.15156792104244232 -0.031399998813867569
   vertex 0.11491782963275909 0.15156792104244232 -5.9306620725507742e-10
   vertex 0.11497944593429565 0.15078504383563995 -0.031399998813867569
  endloop
 endfacet
 facet normal 0.9914447991302735 0.13052666500578267 -0
  outer loop
   vertex 0.11491782963275909 0.15156792104244232 -5.9306620725507742e-10
   vertex 0.11491782963275909 0.15156792104244232 -0.031399998813867569
   vertex 0.11481532454490662 0.15234652161598206 -5.9306620725507742e-10
  endloop
 endfacet
 facet normal 0.9914447991302735 0.13052666500578267 0
  outer loop
   vertex 0.11481532454490662 0.15234652161598206 -0.031399998813867569
   vertex 0.11481532454490662 0.15234652161598206 -5.9306620725507742e-10
   vertex 0.11491782963275909 0.15156792104244232 -0.031399998813867569
  endloop
 endfacet
 facet normal 0.98325456290066504 0.18223738511903176 -0
  outer loop
   vertex 0.11481532454490662 0.15234652161598206 -5.9306620725507742e-10
   vertex 0.11481532454490662 0.15234652161598206 -0.031399998813867569
   vertex 0.1146722137928009 0.15311866998672485 -5.9306620725507742e-10
  endloop
 endfacet
 facet normal 0.98325456290066504 0.18223738511903176 0
  outer loop
   vertex 0.1146722137928009 0.15311866998672485 -0.031399998813867569
   vertex 0.1146722137928009 0.15311866998672485 -5.9306620725507742e-10
   vertex 0.11481532454490662 0.15234652161598206 -0.031399998813867569
  endloop
 endfacet
 facet normal 0.97236921404911913 0.2334483059897807 -0
  outer loop
   vertex 0.1146722137928009 0.15311866998672485 -5.9306620725507742e-10
   vertex 0.1146722137928009 0.15311866998672485 -0.031399998813867569
   vertex 0.114488884806633 0.15388227999210358 -5.9306620725507742e-10
  endloop
 endfacet
 facet normal 0.97236921404911913 0.2334483059897807 0
  outer loop
   vertex 0.114488884806633 0.15388227999210358 -0.031399998813867569
   vertex 0.114488884806633 0.15388227999210358 -5.9306620725507742e-10
   vertex 0.1146722137928009 0.15311866998672485 -0.031399998813867569
  endloop
 endfacet
 facet normal 0.958819549436421 0.28401597071034318 -0
  outer loop
   vertex 0.114488884806633 0.15388227999210358 -5.9306620725507742e-10
   vertex 0.114488884806633 0.15388227999210358 -0.031399998813867569
   vertex 0.11426584422588348 0.15463525056838989 -5.9306620725507742e-10
  endloop
 endfacet
 facet normal 0.958819549436421 0.28401597071034318 0
  outer loop
   vertex 0.11426584422588348 0.15463525056838989 -0.031399998813867569
   vertex 0.11426584422588348 0.15463525056838989 -5.9306620725507742e-10
   vertex 0.114488884806633 0.15388227999210358 -0.031399998813867569
  endloop
 endfacet
 facet normal 0.94264302292156976 0.33380253344947064 -0
  outer loop
   vertex 0.11426584422588348 0.15463525056838989 -5.9306620725507742e-10
   vertex 0.11426584422588348 0.15463525056838989 -0.031399998813867569
   vertex 0.11400370299816132 0.15537552535533905 -5.9306620725507742e-10
  endloop
 endfacet
 facet normal 0.94264302292156976 0.33380253344947064 0
  outer loop
   vertex 0.11400370299816132 0.15537552535533905 -0.031399998813867569
   vertex 0.11400370299816132 0.15537552535533905 -5.9306620725507742e-10
   vertex 0.11426584422588348 0.15463525056838989 -0.031399998813867569
  endloop
 endfacet
 facet normal 0.92388049949303086 0.38268109785630633 -0
  outer loop
   vertex 0.11400370299816132 0.15537552535533905 -5.9306620725507742e-10
   vertex 0.11400370299816132 0.15537552535533905 -0.031399998813867569
   vertex 0.11370318382978439 0.1561010479927063 -5.9306620725507742e-10
  endloop
 endfacet
 facet normal 0.92388049949303086 0.38268109785630633 0
  outer loop
   vertex 0.11370318382978439 0.1561010479927063 -5.9306620725507742e-10
   vertex 0.11400370299816132 0.15537552535533905 -0.031399998813867569
   vertex 0.11370318382978439 0.1561010479927063 -0.031399998813867569
  endloop
 endfacet
 facet normal 0.90258377405218759 0.43051426319892067 -0
  outer loop
   vertex 0.11370318382978439 0.1561010479927063 -5.9306620725507742e-10
   vertex 0.11370318382978439 0.1561010479927063 -0.031399998813867569
   vertex 0.11336509883403778 0.15680985152721405 -5.9306620725507742e-10
  endloop
 endfacet
 facet normal 0.90258377405218759 0.43051426319892067 0
  outer loop
   vertex 0.11336509883403778 0.15680985152721405 -0.031399998813867569
   vertex 0.11336509883403778 0.15680985152721405 -5.9306620725507742e-10
   vertex 0.11370318382978439 0.1561010479927063 -0.031399998813867569
  endloop
 endfacet
 facet normal 0.8788170587845392 0.47715885948947007 -0
  outer loop
   vertex 0.11336509883403778 0.15680985152721405 -5.9306620725507742e-10
   vertex 0.11336509883403778 0.15680985152721405 -0.031399998813867569
   vertex 0.11299037933349609 0.1574999988079071 -5.9306620725507742e-10
  endloop
 endfacet
 facet normal 0.8788170587845392 0.47715885948947007 0
  outer loop
   vertex 0.11299037933349609 0.1574999988079071 -5.9306620725507742e-10
   vertex 0.11336509883403778 0.15680985152721405 -0.031399998813867569
   vertex 0.11299037933349609 0.1574999988079071 -0.031399998813867569
  endloop
 endfacet
 facet normal 0.8526418839038945 0.52249575865533859 -0
  outer loop
   vertex 0.11299037933349609 0.1574999988079071 -5.9306620725507742e-10
   vertex 0.11299037933349609 0.1574999988079071 -0.031399998813867569
   vertex 0.1125800609588623 0.15816958248615265 -5.9306620725507742e-10
  endloop
 endfacet
 facet normal 0.8526418839038945 0.52249575865533859 0
  outer loop
   vertex 0.1125800609588623 0.15816958248615265 -5.9306620725507742e-10
   vertex 0.11299037933349609 0.1574999988079071 -0.031399998813867569
   vertex 0.1125800609588623 0.15816958248615265 -0.031399998813867569
  endloop
 endfacet
 facet normal 0.82412772866408457 0.56640399614319203 -0
  outer loop
   vertex 0.1125800609588623 0.15816958248615265 -5.9306620725507742e-10
   vertex 0.1125800609588623 0.15816958248615265 -0.031399998813867569
   vertex 0.11213525384664536 0.15881678462028503 -5.9306620725507742e-10
  endloop
 endfacet
 facet normal 0.82412772866408457 0.56640399614319203 0
  outer loop
   vertex 0.11213525384664536 0.15881678462028503 -0.031399998813867569
   vertex 0.11213525384664536 0.15881678462028503 -5.9306620725507742e-10
   vertex 0.1125800609588623 0.15816958248615265 -0.031399998813867569
  endloop
 endfacet
 facet normal 0.79334822080802858 0.60876810079104471 -0
  outer loop
   vertex 0.11213525384664536 0.15881678462028503 -5.9306620725507742e-10
   vertex 0.11213525384664536 0.15881678462028503 -0.031399998813867569
   vertex 0.11165718734264374 0.1594398021697998 -5.9306620725507742e-10
  endloop
 endfacet
 facet normal 0.79334822080802858 0.60876810079104471 0
  outer loop
   vertex 0.11165718734264374 0.1594398021697998 -0.031399998813867569
   vertex 0.11165718734264374 0.1594398021697998 -5.9306620725507742e-10
   vertex 0.11213525384664536 0.15881678462028503 -0.031399998813867569
  endloop
 endfacet
 facet normal 0.76041330711312138 0.64943945242438561 -0
  outer loop
   vertex 0.11165718734264374 0.1594398021697998 -5.9306620725507742e-10
   vertex 0.11165718734264374 0.1594398021697998 -0.031399998813867569
   vertex 0.11114717274904251 0.16003696620464325 -5.9306620725507742e-10
  endloop
 endfacet
 facet normal 0.76041330711312138 0.64943945242438561 0
  outer loop
   vertex 0.11114717274904251 0.16003696620464325 -0.031399998813867569
   vertex 0.11114717274904251 0.16003696620464325 -5.9306620725507742e-10
   vertex 0.11165718734264374 0.1594398021697998 -0.031399998813867569
  endloop
 endfacet
 facet normal 0.72537453640226313 0.68835440140904303 -0
  outer loop
   vertex 0.11114717274904251 0.16003696620464325 -5.9306620725507742e-10
   vertex 0.11114717274904251 0.16003696620464325 -0.031399998813867569
   vertex 0.1106066033244133 0.16060660779476166 -5.9306620725507742e-10
  endloop
 endfacet
 facet normal 0.72537453640226313 0.68835440140904303 0
  outer loop
   vertex 0.1106066033244133 0.16060660779476166 -5.9306620725507742e-10
   vertex 0.11114717274904251 0.16003696620464325 -0.031399998813867569
   vertex 0.1106066033244133 0.16060660779476166 -0.031399998813867569
  endloop
 endfacet
 facet normal 0.68835440140904303 0.72537453640226313 -0
  outer loop
   vertex 0.1106066033244133 0.16060660779476166 -5.9306620725507742e-10
   vertex 0.1106066033244133 0.16060660779476166 -0.031399998813867569
   vertex 0.11003696173429489 0.16114717721939087 -5.9306620725507742e-10
  endloop
 endfacet
 facet normal 0.68835440140904303 0.72537453640226313 0
  outer loop
   vertex 0.11003696173429489 0.16114717721939087 -5.9306620725507742e-10
   vertex 0.1106066033244133 0.16060660779476166 -0.031399998813867569
   vertex 0.11003696173429489 0.16114717721939087 -0.031399998813867569
  endloop
 endfacet
 facet normal 0.64943865181151783 0.76041399088472716 -0
  outer loop
   vertex 0.11003696173429489 0.16114717721939087 -5.9306620725507742e-10
   vertex 0.11003696173429489 0.16114717721939087 -0.031399998813867569
   vertex 0.10943980515003204 0.1616571843624115 -5.9306620725507742e-10
  endloop
 endfacet
 facet normal 0.64943865181151783 0.76041399088472716 0
  outer loop
   vertex 0.10943980515003204 0.1616571843624115 -5.9306620725507742e-10
   vertex 0.11003696173429489 0.16114717721939087 -0.031399998813867569
   vertex 0.10943980515003204 0.1616571843624115 -0.031399998813867569
  endloop
 endfacet
 facet normal 0.60876949009219727 0.79334715473926432 -0
  outer loop
   vertex 0.10943980515003204 0.1616571843624115 -5.9306620725507742e-10
   vertex 0.10943980515003204 0.1616571843624115 -0.031399998813867569
   vertex 0.10881678014993668 0.16213525831699371 -5.9306620725507742e-10
  endloop
 endfacet
 facet normal 0.60876949009219727 0.79334715473926432 0
  outer loop
   vertex 0.10881678014993668 0.16213525831699371 -0.031399998813867569
   vertex 0.10881678014993668 0.16213525831699371 -5.9306620725507742e-10
   vertex 0.10943980515003204 0.1616571843624115 -0.031399998813867569
  endloop
 endfacet
 facet normal 0.56640198102865236 0.82412911360224261 -0
  outer loop
   vertex 0.10881678014993668 0.16213525831699371 -5.9306620725507742e-10
   vertex 0.10881678014993668 0.16213525831699371 -0.031399998813867569
   vertex 0.10816958546638489 0.16258005797863007 -5.9306620725507742e-10
  endloop
 endfacet
 facet normal 0.56640198102865236 0.82412911360224261 0
  outer loop
   vertex 0.10816958546638489 0.16258005797863007 -5.9306620725507742e-10
   vertex 0.10881678014993668 0.16213525831699371 -0.031399998813867569
   vertex 0.10816958546638489 0.16258005797863007 -0.031399998813867569
  endloop
 endfacet
 facet normal 0.52249575865533859 0.8526418839038945 -0
  outer loop
   vertex 0.10816958546638489 0.16258005797863007 -5.9306620725507742e-10
   vertex 0.10816958546638489 0.16258005797863007 -0.031399998813867569
   vertex 0.10750000178813934 0.16299037635326385 -5.9306620725507742e-10
  endloop
 endfacet
 facet normal 0.52249575865533859 0.8526418839038945 0
  outer loop
   vertex 0.10750000178813934 0.16299037635326385 -5.9306620725507742e-10
   vertex 0.10816958546638489 0.16258005797863007 -0.031399998813867569
   vertex 0.10750000178813934 0.16299037635326385 -0.031399998813867569
  endloop
 endfacet
 facet normal 0.47715885948947007 0.8788170587845392 -0
  outer loop
   vertex 0.10750000178813934 0.16299037635326385 -5.9306620725507742e-10
   vertex 0.10750000178813934 0.16299037635326385 -0.031399998813867569
   vertex 0.10680985450744629 0.16336509585380554 -5.9306620725507742e-10
  endloop
 endfacet
 facet normal 0.47715885948947007 0.8788170587845392 0
  outer loop
   vertex 0.10680985450744629 0.16336509585380554 -5.9306620725507742e-10
   vertex 0.10750000178813934 0.16299037635326385 -0.031399998813867569
   vertex 0.10680985450744629 0.16336509585380554 -0.031399998813867569
  endloop
 endfacet
 facet normal 0.43052199221386911 0.90258008742726037 -0
  outer loop
   vertex 0.10680985450744629 0.16336509585380554 -5.9306620725507742e-10
   vertex 0.10680985450744629 0.16336509585380554 -0.031399998813867569
   vertex 0.10610105097293854 0.16370318830013275 -5.9306620725507742e-10
  endloop
 endfacet
 facet normal 0.43052199221386911 0.90258008742726037 0
  outer loop
   vertex 0.10610105097293854 0.16370318830013275 -0.031399998813867569
   vertex 0.10610105097293854 0.16370318830013275 -5.9306620725507742e-10
   vertex 0.10680985450744629 0.16336509585380554 -0.031399998813867569
  endloop
 endfacet
 facet normal 0.38266964537676618 0.92388524314831444 -0
  outer loop
   vertex 0.10610105097293854 0.16370318830013275 -5.9306620725507742e-10
   vertex 0.10610105097293854 0.16370318830013275 -0.031399998813867569
   vertex 0.10537552088499069 0.16400370001792908 -5.9306620725507742e-10
  endloop
 endfacet
 facet normal 0.38266964537676618 0.92388524314831444 0
  outer loop
   vertex 0.10537552088499069 0.16400370001792908 -0.031399998813867569
   vertex 0.10537552088499069 0.16400370001792908 -5.9306620725507742e-10
   vertex 0.10610105097293854 0.16370318830013275 -0.031399998813867569
  endloop
 endfacet
 facet normal 0.33380551872858716 0.94264196578888793 -0
  outer loop
   vertex 0.10537552088499069 0.16400370001792908 -5.9306620725507742e-10
   vertex 0.10537552088499069 0.16400370001792908 -0.031399998813867569
   vertex 0.10463525354862213 0.16426584124565125 -5.9306620725507742e-10
  endloop
 endfacet
 facet normal 0.33380551872858716 0.94264196578888793 0
  outer loop
   vertex 0.10463525354862213 0.16426584124565125 -0.031399998813867569
   vertex 0.10463525354862213 0.16426584124565125 -5.9306620725507742e-10
   vertex 0.10537552088499069 0.16400370001792908 -0.031399998813867569
  endloop
 endfacet
 facet normal 0.28401597071034318 0.958819549436421 -0
  outer loop
   vertex 0.10463525354862213 0.16426584124565125 -5.9306620725507742e-10
   vertex 0.10463525354862213 0.16426584124565125 -0.031399998813867569
   vertex 0.10388228297233582 0.16448888182640076 -5.9306620725507742e-10
  endloop
 endfacet
 facet normal 0.28401597071034318 0.958819549436421 0
  outer loop
   vertex 0.10388228297233582 0.16448888182640076 -0.031399998813867569
   vertex 0.10388228297233582 0.16448888182640076 -5.9306620725507742e-10
   vertex 0.10463525354862213 0.16426584124565125 -0.031399998813867569
  endloop
 endfacet
 facet normal 0.2334483059897807 0.97236921404911913 -0
  outer loop
   vertex 0.10388228297233582 0.16448888182640076 -5.9306620725507742e-10
   vertex 0.10388228297233582 0.16448888182640076 -0.031399998813867569
   vertex 0.10311867296695709 0.16467221081256866 -5.9306620725507742e-10
  endloop
 endfacet
 facet normal 0.2334483059897807 0.97236921404911913 0
  outer loop
   vertex 0.10311867296695709 0.16467221081256866 -0.031399998813867569
   vertex 0.10311867296695709 0.16467221081256866 -5.9306620725507742e-10
   vertex 0.10388228297233582 0.16448888182640076 -0.031399998813867569
  endloop
 endfacet
 facet normal 0.18223568509605162 0.98325487798310607 -0
  outer loop
   vertex 0.10311867296695709 0.16467221081256866 -5.9306620725507742e-10
   vertex 0.10311867296695709 0.16467221081256866 -0.031399998813867569
   vertex 0.1023465171456337 0.16481532156467438 -5.9306620725507742e-10
  endloop
 endfacet
 facet normal 0.18223568509605162 0.98325487798310607 0
  outer loop
   vertex 0.1023465171456337 0.16481532156467438 -0.031399998813867569
   vertex 0.1023465171456337 0.16481532156467438 -5.9306620725507742e-10
   vertex 0.10311867296695709 0.16467221081256866 -0.031399998813867569
  endloop
 endfacet
 facet normal 0.13052789277224797 0.9914446374903827 -0
  outer loop
   vertex 0.1023465171456337 0.16481532156467438 -5.9306620725507742e-10
   vertex 0.1023465171456337 0.16481532156467438 -0.031399998813867569
   vertex 0.10156792402267456 0.16491782665252686 -5.9306620725507742e-10
  endloop
 endfacet
 facet normal 0.13052789277224797 0.9914446374903827 0
  outer loop
   vertex 0.10156792402267456 0.16491782665252686 -0.031399998813867569
   vertex 0.10156792402267456 0.16491782665252686 -5.9306620725507742e-10
   vertex 0.1023465171456337 0.16481532156467438 -0.031399998813867569
  endloop
 endfacet
 facet normal 0.078461554381082765 0.9969171402298711 -0
  outer loop
   vertex 0.10156792402267456 0.16491782665252686 -5.9306620725507742e-10
   vertex 0.10156792402267456 0.16491782665252686 -0.031399998813867569
   vertex 0.1007850393652916 0.16497944295406342 -5.9306620725507742e-10
  endloop
 endfacet
 facet normal 0.078461554381082765 0.9969171402298711 0
  outer loop
   vertex 0.1007850393652916 0.16497944295406342 -0.031399998813867569
   vertex 0.1007850393652916 0.16497944295406342 -5.9306620725507742e-10
   vertex 0.10156792402267456 0.16491782665252686 -0.031399998813867569
  endloop
 endfacet
 facet normal 0.02618542607784452 0.99965710294136445 -0
  outer loop
   vertex 0.1007850393652916 0.16497944295406342 -5.9306620725507742e-10
   vertex 0.1007850393652916 0.16497944295406342 -0.031399998813867569
   vertex 0.10000000149011612 0.16500000655651093 -5.9306620725507742e-10
  endloop
 endfacet
 facet normal 0.02618542607784452 0.99965710294136445 0
  outer loop
   vertex 0.10000000149011612 0.16500000655651093 -0.031399998813867569
   vertex 0.10000000149011612 0.16500000655651093 -5.9306620725507742e-10
   vertex 0.1007850393652916 0.16497944295406342 -0.031399998813867569
  endloop
 endfacet
 facet normal -0.02618542607784452 0.99965710294136445 0
  outer loop
   vertex 0.10000000149011612 0.16500000655651093 -5.9306620725507742e-10
   vertex 0.10000000149011612 0.16500000655651093 -0.031399998813867569
   vertex 0.099214963614940643 0.16497944295406342 -5.9306620725507742e-10
  endloop
 endfacet
 facet normal -0.02618542607784452 0.99965710294136445 0
  outer loop
   vertex 0.099214963614940643 0.16497944295406342 -0.031399998813867569
   vertex 0.099214963614940643 0.16497944295406342 -5.9306620725507742e-10
   vertex 0.10000000149011612 0.16500000655651093 -0.031399998813867569
  endloop
 endfacet
 facet normal -0.078460812279643868 0.99691719863608441 0
  outer loop
   vertex 0.099214963614940643 0.16497944295406342 -5.9306620725507742e-10
   vertex 0.099214963614940643 0.16497944295406342 -0.031399998813867569
   vertex 0.098432071506977081 0.16491782665252686 -5.9306620725507742e-10
  endloop
 endfacet
 facet normal -0.078460812279643868 0.99691719863608441 0
  outer loop
   vertex 0.098432071506977081 0.16491782665252686 -5.9306620725507742e-10
   vertex 0.099214963614940643 0.16497944295406342 -0.031399998813867569
   vertex 0.098432071506977081 0.16491782665252686 -0.031399998813867569
  endloop
 endfacet
 facet normal -0.13052912056161067 0.99144447584593076 0
  outer loop
   vertex 0.098432071506977081 0.16491782665252686 -5.9306620725507742e-10
   vertex 0.098432071506977081 0.16491782665252686 -0.031399998813867569
   vertex 0.097653485834598541 0.16481532156467438 -5.9306620725507742e-10
  endloop
 endfacet
 facet normal -0.13052912056161067 0.99144447584593076 0
  outer loop
   vertex 0.097653485834598541 0.16481532156467438 -0.031399998813867569
   vertex 0.097653485834598541 0.16481532156467438 -5.9306620725507742e-10
   vertex 0.098432071506977081 0.16491782665252686 -0.031399998813867569
  endloop
 endfacet
 facet normal -0.18223398510424416 0.98325519305672937 0
  outer loop
   vertex 0.097653485834598541 0.16481532156467438 -5.9306620725507742e-10
   vertex 0.097653485834598541 0.16481532156467438 -0.031399998813867569
   vertex 0.09688132256269455 0.16467221081256866 -5.9306620725507742e-10
  endloop
 endfacet
 facet normal -0.18223398510424416 0.98325519305672937 0
  outer loop
   vertex 0.09688132256269455 0.16467221081256866 -5.9306620725507742e-10
   vertex 0.097653485834598541 0.16481532156467438 -0.031399998813867569
   vertex 0.09688132256269455 0.16467221081256866 -0.031399998813867569
  endloop
 endfacet
 facet normal -0.2334483059897807 0.97236921404911913 0
  outer loop
   vertex 0.09688132256269455 0.16467221081256866 -5.9306620725507742e-10
   vertex 0.09688132256269455 0.16467221081256866 -0.031399998813867569
   vertex 0.096117712557315826 0.16448888182640076 -5.9306620725507742e-10
  endloop
 endfacet
 facet normal -0.2334483059897807 0.97236921404911913 0
  outer loop
   vertex 0.096117712557315826 0.16448888182640076 -0.031399998813867569
   vertex 0.096117712557315826 0.16448888182640076 -5.9306620725507742e-10
   vertex 0.09688132256269455 0.16467221081256866 -0.031399998813867569
  endloop
 endfacet
 facet normal -0.28401597071034318 0.958819549436421 0
  outer loop
   vertex 0.096117712557315826 0.16448888182640076 -5.9306620725507742e-10
   vertex 0.096117712557315826 0.16448888182640076 -0.031399998813867569
   vertex 0.09536474198102951 0.16426584124565125 -5.9306620725507742e-10
  endloop
 endfacet
 facet normal -0.28401597071034318 0.958819549436421 0
  outer loop
   vertex 0.09536474198102951 0.16426584124565125 -0.031399998813867569
   vertex 0.09536474198102951 0.16426584124565125 -5.9306620725507742e-10
   vertex 0.096117712557315826 0.16448888182640076 -0.031399998813867569
  endloop
 endfacet
 facet normal -0.33380850405775225 0.94264090862784311 0
  outer loop
   vertex 0.09536474198102951 0.16426584124565125 -5.9306620725507742e-10
   vertex 0.09536474198102951 0.16426584124565125 -0.031399998813867569
   vertex 0.094624482095241547 0.16400370001792908 -5.9306620725507742e-10
  endloop
 endfacet
 facet normal -0.33380850405775225 0.94264090862784311 0
  outer loop
   vertex 0.094624482095241547 0.16400370001792908 -5.9306620725507742e-10
   vertex 0.09536474198102951 0.16426584124565125 -0.031399998813867569
   vertex 0.094624482095241547 0.16400370001792908 -0.031399998813867569
  endloop
 endfacet
 facet normal -0.38266964537676618 0.92388524314831444 0
  outer loop
   vertex 0.094624482095241547 0.16400370001792908 -5.9306620725507742e-10
   vertex 0.094624482095241547 0.16400370001792908 -0.031399998813867569
   vertex 0.093898952007293701 0.16370318830013275 -5.9306620725507742e-10
  endloop
 endfacet
 facet normal -0.38266964537676618 0.92388524314831444 0
  outer loop
   vertex 0.093898952007293701 0.16370318830013275 -0.031399998813867569
   vertex 0.093898952007293701 0.16370318830013275 -5.9306620725507742e-10
   vertex 0.094624482095241547 0.16400370001792908 -0.031399998813867569
  endloop
 endfacet
 facet normal -0.4305183055988856 0.90258184589779145 0
  outer loop
   vertex 0.093898952007293701 0.16370318830013275 -5.9306620725507742e-10
   vertex 0.093898952007293701 0.16370318830013275 -0.031399998813867569
   vertex 0.093190141022205353 0.16336509585380554 -5.9306620725507742e-10
  endloop
 endfacet
 facet normal -0.4305183055988856 0.90258184589779145 0
  outer loop
   vertex 0.093190141022205353 0.16336509585380554 -0.031399998813867569
   vertex 0.093190141022205353 0.16336509585380554 -5.9306620725507742e-10
   vertex 0.093898952007293701 0.16370318830013275 -0.031399998813867569
  endloop
 endfacet
 facet normal -0.47716283791627201 0.87881489866278995 0
  outer loop
   vertex 0.093190141022205353 0.16336509585380554 -5.9306620725507742e-10
   vertex 0.093190141022205353 0.16336509585380554 -0.031399998813867569
   vertex 0.092500001192092896 0.16299037635326385 -5.9306620725507742e-10
  endloop
 endfacet
 facet normal -0.47716283791627201 0.87881489866278995 0
  outer loop
   vertex 0.092500001192092896 0.16299037635326385 -5.9306620725507742e-10
   vertex 0.093190141022205353 0.16336509585380554 -0.031399998813867569
   vertex 0.092500001192092896 0.16299037635326385 -0.031399998813867569
  endloop
 endfacet
 facet normal -0.52249575865533859 0.8526418839038945 0
  outer loop
   vertex 0.092500001192092896 0.16299037635326385 -5.9306620725507742e-10
   vertex 0.092500001192092896 0.16299037635326385 -0.031399998813867569
   vertex 0.091830417513847351 0.16258005797863007 -5.9306620725507742e-10
  endloop
 endfacet
 facet normal -0.52249575865533859 0.8526418839038945 0
  outer loop
   vertex 0.091830417513847351 0.16258005797863007 -5.9306620725507742e-10
   vertex 0.092500001192092896 0.16299037635326385 -0.031399998813867569
   vertex 0.091830417513847351 0.16258005797863007 -0.031399998813867569
  endloop
 endfacet
 facet normal -0.56640198102865236 0.82412911360224261 0
  outer loop
   vertex 0.091830417513847351 0.16258005797863007 -5.9306620725507742e-10
   vertex 0.091830417513847351 0.16258005797863007 -0.031399998813867569
   vertex 0.091183222830295563 0.16213525831699371 -5.9306620725507742e-10
  endloop
 endfacet
 facet normal -0.56640198102865236 0.82412911360224261 0
  outer loop
   vertex 0.091183222830295563 0.16213525831699371 -5.9306620725507742e-10
   vertex 0.091830417513847351 0.16258005797863007 -0.031399998813867569
   vertex 0.091183222830295563 0.16213525831699371 -0.031399998813867569
  endloop
 endfacet
 facet normal -0.60876949009219727 0.79334715473926432 0
  outer loop
   vertex 0.091183222830295563 0.16213525831699371 -5.9306620725507742e-10
   vertex 0.091183222830295563 0.16213525831699371 -0.031399998813867569
   vertex 0.090560197830200195 0.1616571843624115 -5.9306620725507742e-10
  endloop
 endfacet
 facet normal -0.60876949009219727 0.79334715473926432 0
  outer loop
   vertex 0.090560197830200195 0.1616571843624115 -0.031399998813867569
   vertex 0.090560197830200195 0.1616571843624115 -5.9306620725507742e-10
   vertex 0.091183222830295563 0.16213525831699371 -0.031399998813867569
  endloop
 endfacet
 facet normal -0.64943865181151783 0.76041399088472716 0
  outer loop
   vertex 0.090560197830200195 0.1616571843624115 -5.9306620725507742e-10
   vertex 0.090560197830200195 0.1616571843624115 -0.031399998813867569
   vertex 0.089963041245937347 0.16114717721939087 -5.9306620725507742e-10
  endloop
 endfacet
 facet normal -0.64943865181151783 0.76041399088472716 0
  outer loop
   vertex 0.089963041245937347 0.16114717721939087 -5.9306620725507742e-10
   vertex 0.090560197830200195 0.1616571843624115 -0.031399998813867569
   vertex 0.089963041245937347 0.16114717721939087 -0.031399998813867569
  endloop
 endfacet
 facet normal -0.68835440140904303 0.72537453640226313 0
  outer loop
   vertex 0.089963041245937347 0.16114717721939087 -5.9306620725507742e-10
   vertex 0.089963041245937347 0.16114717721939087 -0.031399998813867569
   vertex 0.089393399655818939 0.16060660779476166 -5.9306620725507742e-10
  endloop
 endfacet
 facet normal -0.68835440140904303 0.72537453640226313 0
  outer loop
   vertex 0.089393399655818939 0.16060660779476166 -5.9306620725507742e-10
   vertex 0.089963041245937347 0.16114717721939087 -0.031399998813867569
   vertex 0.089393399655818939 0.16060660779476166 -0.031399998813867569
  endloop
 endfacet
 facet normal -0.72537453640226313 0.68835440140904303 0
  outer loop
   vertex 0.089393399655818939 0.16060660779476166 -5.9306620725507742e-10
   vertex 0.089393399655818939 0.16060660779476166 -0.031399998813867569
   vertex 0.088852830231189728 0.16003696620464325 -5.9306620725507742e-10
  endloop
 endfacet
 facet normal -0.72537453640226313 0.68835440140904303 0
  outer loop
   vertex 0.088852830231189728 0.16003696620464325 -5.9306620725507742e-10
   vertex 0.089393399655818939 0.16060660779476166 -0.031399998813867569
   vertex 0.088852830231189728 0.16003696620464325 -0.031399998813867569
  endloop
 endfacet
 facet normal -0.76040862185290714 0.64944493824477734 0
  outer loop
   vertex 0.088852830231189728 0.16003696620464325 -5.9306620725507742e-10
   vertex 0.088852830231189728 0.16003696620464325 -0.031399998813867569
   vertex 0.088342808187007904 0.1594398021697998 -5.9306620725507742e-10
  endloop
 endfacet
 facet normal -0.76040862185290714 0.64944493824477734 0
  outer loop
   vertex 0.088342808187007904 0.1594398021697998 -0.031399998813867569
   vertex 0.088342808187007904 0.1594398021697998 -5.9306620725507742e-10
   vertex 0.088852830231189728 0.16003696620464325 -0.031399998813867569
  endloop
 endfacet
 facet normal -0.79334822080802858 0.60876810079104471 0
  outer loop
   vertex 0.088342808187007904 0.1594398021697998 -5.9306620725507742e-10
   vertex 0.088342808187007904 0.1594398021697998 -0.031399998813867569
   vertex 0.087864741683006287 0.15881678462028503 -5.9306620725507742e-10
  endloop
 endfacet
 facet normal -0.79334822080802858 0.60876810079104471 0
  outer loop
   vertex 0.087864741683006287 0.15881678462028503 -0.031399998813867569
   vertex 0.087864741683006287 0.15881678462028503 -5.9306620725507742e-10
   vertex 0.088342808187007904 0.1594398021697998 -0.031399998813867569
  endloop
 endfacet
 facet normal -0.82413215725333855 0.56639755241434298 0
  outer loop
   vertex 0.087864741683006287 0.15881678462028503 -5.9306620725507742e-10
   vertex 0.087864741683006287 0.15881678462028503 -0.031399998813867569
   vertex 0.087419942021369934 0.15816958248615265 -5.9306620725507742e-10
  endloop
 endfacet
 facet normal -0.82413215725333855 0.56639755241434298 0
  outer loop
   vertex 0.087419942021369934 0.15816958248615265 -0.031399998813867569
   vertex 0.087419942021369934 0.15816958248615265 -5.9306620725507742e-10
   vertex 0.087864741683006287 0.15881678462028503 -0.031399998813867569
  endloop
 endfacet
 facet normal -0.85263765719764195 0.52250265600139911 0
  outer loop
   vertex 0.087419942021369934 0.15816958248615265 -5.9306620725507742e-10
   vertex 0.087419942021369934 0.15816958248615265 -0.031399998813867569
   vertex 0.087009616196155548 0.1574999988079071 -5.9306620725507742e-10
  endloop
 endfacet
 facet normal -0.85263765719764195 0.52250265600139911 0
  outer loop
   vertex 0.087009616196155548 0.1574999988079071 -0.031399998813867569
   vertex 0.087009616196155548 0.1574999988079071 -5.9306620725507742e-10
   vertex 0.087419942021369934 0.15816958248615265 -0.031399998813867569
  endloop
 endfacet
 facet normal -0.87882103717052318 0.47715153214311906 0
  outer loop
   vertex 0.087009616196155548 0.1574999988079071 -5.9306620725507742e-10
   vertex 0.087009616196155548 0.1574999988079071 -0.031399998813867569
   vertex 0.086634904146194458 0.15680985152721405 -5.9306620725507742e-10
  endloop
 endfacet
 facet normal -0.87882103717052318 0.47715153214311906 0
  outer loop
   vertex 0.086634904146194458 0.15680985152721405 -0.031399998813867569
   vertex 0.086634904146194458 0.15680985152721405 -5.9306620725507742e-10
   vertex 0.087009616196155548 0.1574999988079071 -0.031399998813867569
  endloop
 endfacet
 facet normal -0.90258377405218759 0.43051426319892067 0
  outer loop
   vertex 0.086634904146194458 0.15680985152721405 -5.9306620725507742e-10
   vertex 0.086634904146194458 0.15680985152721405 -0.031399998813867569
   vertex 0.086296819150447845 0.1561010479927063 -5.9306620725507742e-10
  endloop
 endfacet
 facet normal -0.90258377405218759 0.43051426319892067 0
  outer loop
   vertex 0.086296819150447845 0.1561010479927063 -0.031399998813867569
   vertex 0.086296819150447845 0.1561010479927063 -5.9306620725507742e-10
   vertex 0.086634904146194458 0.15680985152721405 -0.031399998813867569
  endloop
 endfacet
 facet normal -0.92387714512446195 0.38268919597589085 0
  outer loop
   vertex 0.086296819150447845 0.1561010479927063 -5.9306620725507742e-10
   vertex 0.086296819150447845 0.1561010479927063 -0.031399998813867569
   vertex 0.085996292531490326 0.15537552535533905 -5.9306620725507742e-10
  endloop
 endfacet
 facet normal -0.92387714512446195 0.38268919597589085 0
  outer loop
   vertex 0.085996292531490326 0.15537552535533905 -0.031399998813867569
   vertex 0.085996292531490326 0.15537552535533905 -5.9306620725507742e-10
   vertex 0.086296819150447845 0.1561010479927063 -0.031399998813867569
  endloop
 endfacet
 facet normal -0.94264302292156976 0.33380253344947064 0
  outer loop
   vertex 0.085996292531490326 0.15537552535533905 -5.9306620725507742e-10
   vertex 0.085996292531490326 0.15537552535533905 -0.031399998813867569
   vertex 0.085734151303768158 0.15463525056838989 -5.9306620725507742e-10
  endloop
 endfacet
 facet normal -0.94264302292156976 0.33380253344947064 0
  outer loop
   vertex 0.085734151303768158 0.15463525056838989 -0.031399998813867569
   vertex 0.085734151303768158 0.15463525056838989 -5.9306620725507742e-10
   vertex 0.085996292531490326 0.15537552535533905 -0.031399998813867569
  endloop
 endfacet
 facet normal -0.958819549436421 0.28401597071034318 0
  outer loop
   vertex 0.085734151303768158 0.15463525056838989 -5.9306620725507742e-10
   vertex 0.085734151303768158 0.15463525056838989 -0.031399998813867569
   vertex 0.085511110723018646 0.15388227999210358 -5.9306620725507742e-10
  endloop
 endfacet
 facet normal -0.958819549436421 0.28401597071034318 0
  outer loop
   vertex 0.085511110723018646 0.15388227999210358 -0.031399998813867569
   vertex 0.085511110723018646 0.15388227999210358 -5.9306620725507742e-10
   vertex 0.085734151303768158 0.15463525056838989 -0.031399998813867569
  endloop
 endfacet
 facet normal -0.97237136764519927 0.23343933555381136 0
  outer loop
   vertex 0.085511110723018646 0.15388227999210358 -5.9306620725507742e-10
   vertex 0.085511110723018646 0.15388227999210358 -0.031399998813867569
   vertex 0.085327789187431335 0.15311866998672485 -5.9306620725507742e-10
  endloop
 endfacet
 facet normal -0.97237136764519927 0.23343933555381136 0
  outer loop
   vertex 0.085327789187431335 0.15311866998672485 -0.031399998813867569
   vertex 0.085327789187431335 0.15311866998672485 -5.9306620725507742e-10
   vertex 0.085511110723018646 0.15388227999210358 -0.031399998813867569
  endloop
 endfacet
 facet normal -0.98325456290066504 0.18223738511903176 0
  outer loop
   vertex 0.085327789187431335 0.15311866998672485 -5.9306620725507742e-10
   vertex 0.085327789187431335 0.15311866998672485 -0.031399998813867569
   vertex 0.085184678435325623 0.15234652161598206 -5.9306620725507742e-10
  endloop
 endfacet
 facet normal -0.98325456290066504 0.18223738511903176 0
  outer loop
   vertex 0.085184678435325623 0.15234652161598206 -0.031399998813867569
   vertex 0.085184678435325623 0.15234652161598206 -5.9306620725507742e-10
   vertex 0.085327789187431335 0.15311866998672485 -0.031399998813867569
  endloop
 endfacet
 facet normal -0.9914447991302735 0.13052666500578267 0
  outer loop
   vertex 0.085184678435325623 0.15234652161598206 -5.9306620725507742e-10
   vertex 0.085184678435325623 0.15234652161598206 -0.031399998813867569
   vertex 0.085082173347473145 0.15156792104244232 -5.9306620725507742e-10
  endloop
 endfacet
 facet normal -0.9914447991302735 0.13052666500578267 0
  outer loop
   vertex 0.085082173347473145 0.15156792104244232 -0.031399998813867569
   vertex 0.085082173347473145 0.15156792104244232 -5.9306620725507742e-10
   vertex 0.085184678435325623 0.15234652161598206 -0.031399998813867569
  endloop
 endfacet
 facet normal -0.99691708182200023 0.078462296496516259 0
  outer loop
   vertex 0.085082173347473145 0.15156792104244232 -5.9306620725507742e-10
   vertex 0.085082173347473145 0.15156792104244232 -0.031399998813867569
   vertex 0.085020557045936584 0.15078504383563995 -5.9306620725507742e-10
  endloop
 endfacet
 facet normal -0.99691708182200023 0.078462296496516259 0
  outer loop
   vertex 0.085020557045936584 0.15078504383563995 -0.031399998813867569
   vertex 0.085020557045936584 0.15078504383563995 -5.9306620725507742e-10
   vertex 0.085082173347473145 0.15156792104244232 -0.031399998813867569
  endloop
 endfacet
 facet normal -0.99965735124480781 0.026175945106433049 0
  outer loop
   vertex 0.085020557045936584 0.15078504383563995 -5.9306620725507742e-10
   vertex 0.085020557045936584 0.15078504383563995 -0.031399998813867569
   vertex 0.085000000894069672 0.15000000596046448 -5.9306620725507742e-10
  endloop
 endfacet
 facet normal -0.99965735124480781 0.026175945106433049 0
  outer loop
   vertex 0.085000000894069672 0.15000000596046448 -0.031399998813867569
   vertex 0.085000000894069672 0.15000000596046448 -5.9306620725507742e-10
   vertex 0.085020557045936584 0.15078504383563995 -0.031399998813867569
  endloop
 endfacet
 facet normal -0.99965736424569684 -0.026175448598757471 0
  outer loop
   vertex 0.085000000894069672 0.15000000596046448 -5.9306620725507742e-10
   vertex 0.085000000894069672 0.15000000596046448 -0.031399998813867569
   vertex 0.085020557045936584 0.14921495318412781 -5.9306620725507742e-10
  endloop
 endfacet
 facet normal -0.99965736424569684 -0.026175448598757471 0
  outer loop
   vertex 0.085020557045936584 0.14921495318412781 -5.9306620725507742e-10
   vertex 0.085000000894069672 0.15000000596046448 -0.031399998813867569
   vertex 0.085020557045936584 0.14921495318412781 -0.031399998813867569
  endloop
 endfacet
 facet normal -0.99691708182200023 -0.078462296496516259 0
  outer loop
   vertex 0.085020557045936584 0.14921495318412781 -5.9306620725507742e-10
   vertex 0.085020557045936584 0.14921495318412781 -0.031399998813867569
   vertex 0.085082173347473145 0.14843207597732544 -5.9306620725507742e-10
  endloop
 endfacet
 facet normal -0.99691708182200023 -0.078462296496516259 -0
  outer loop
   vertex 0.085082173347473145 0.14843207597732544 -0.031399998813867569
   vertex 0.085082173347473145 0.14843207597732544 -5.9306620725507742e-10
   vertex 0.085020557045936584 0.14921495318412781 -0.031399998813867569
  endloop
 endfacet
 facet normal -0.9914447991302735 -0.13052666500578267 0
  outer loop
   vertex 0.085082173347473145 0.14843207597732544 -5.9306620725507742e-10
   vertex 0.085082173347473145 0.14843207597732544 -0.031399998813867569
   vertex 0.085184678435325623 0.14765347540378571 -5.9306620725507742e-10
  endloop
 endfacet
 facet normal -0.9914447991302735 -0.13052666500578267 -0
  outer loop
   vertex 0.085184678435325623 0.14765347540378571 -0.031399998813867569
   vertex 0.085184678435325623 0.14765347540378571 -5.9306620725507742e-10
   vertex 0.085082173347473145 0.14843207597732544 -0.031399998813867569
  endloop
 endfacet
 facet normal -0.98325456290066504 -0.18223738511903176 0
  outer loop
   vertex 0.085184678435325623 0.14765347540378571 -5.9306620725507742e-10
   vertex 0.085184678435325623 0.14765347540378571 -0.031399998813867569
   vertex 0.085327789187431335 0.14688132703304291 -5.9306620725507742e-10
  endloop
 endfacet
 facet normal -0.98325456290066504 -0.18223738511903176 -0
  outer loop
   vertex 0.085327789187431335 0.14688132703304291 -0.031399998813867569
   vertex 0.085327789187431335 0.14688132703304291 -5.9306620725507742e-10
   vertex 0.085184678435325623 0.14765347540378571 -0.031399998813867569
  endloop
 endfacet
 facet normal -0.97237136764519927 -0.23343933555381136 0
  outer loop
   vertex 0.085327789187431335 0.14688132703304291 -5.9306620725507742e-10
   vertex 0.085327789187431335 0.14688132703304291 -0.031399998813867569
   vertex 0.085511110723018646 0.14611771702766418 -5.9306620725507742e-10
  endloop
 endfacet
 facet normal -0.97237136764519927 -0.23343933555381136 -0
  outer loop
   vertex 0.085511110723018646 0.14611771702766418 -0.031399998813867569
   vertex 0.085511110723018646 0.14611771702766418 -5.9306620725507742e-10
   vertex 0.085327789187431335 0.14688132703304291 -0.031399998813867569
  endloop
 endfacet
 facet normal -0.958819549436421 -0.28401597071034318 0
  outer loop
   vertex 0.085511110723018646 0.14611771702766418 -5.9306620725507742e-10
   vertex 0.085511110723018646 0.14611771702766418 -0.031399998813867569
   vertex 0.085734151303768158 0.14536474645137787 -5.9306620725507742e-10
  endloop
 endfacet
 facet normal -0.958819549436421 -0.28401597071034318 -0
  outer loop
   vertex 0.085734151303768158 0.14536474645137787 -0.031399998813867569
   vertex 0.085734151303768158 0.14536474645137787 -5.9306620725507742e-10
   vertex 0.085511110723018646 0.14611771702766418 -0.031399998813867569
  endloop
 endfacet
 facet normal -0.94264090862784311 -0.33380850405775225 0
  outer loop
   vertex 0.085734151303768158 0.14536474645137787 -5.9306620725507742e-10
   vertex 0.085734151303768158 0.14536474645137787 -0.031399998813867569
   vertex 0.085996292531490326 0.1446244865655899 -5.9306620725507742e-10
  endloop
 endfacet
 facet normal -0.94264090862784311 -0.33380850405775225 0
  outer loop
   vertex 0.085996292531490326 0.1446244865655899 -5.9306620725507742e-10
   vertex 0.085734151303768158 0.14536474645137787 -0.031399998813867569
   vertex 0.085996292531490326 0.1446244865655899 -0.031399998813867569
  endloop
 endfacet
 facet normal -0.92387992396964436 -0.38268248729964649 0
  outer loop
   vertex 0.085996292531490326 0.1446244865655899 -5.9306620725507742e-10
   vertex 0.085996292531490326 0.1446244865655899 -0.031399998813867569
   vertex 0.086296819150447845 0.14389894902706146 -5.9306620725507742e-10
  endloop
 endfacet
 facet normal -0.92387992396964436 -0.38268248729964649 -0
  outer loop
   vertex 0.086296819150447845 0.14389894902706146 -0.031399998813867569
   vertex 0.086296819150447845 0.14389894902706146 -5.9306620725507742e-10
   vertex 0.085996292531490326 0.1446244865655899 -0.031399998813867569
  endloop
 endfacet
 facet normal -0.90258377405218759 -0.43051426319892067 0
  outer loop
   vertex 0.086296819150447845 0.14389894902706146 -5.9306620725507742e-10
   vertex 0.086296819150447845 0.14389894902706146 -0.031399998813867569
   vertex 0.086634904146194458 0.14319014549255371 -5.9306620725507742e-10
  endloop
 endfacet
 facet normal -0.90258377405218759 -0.43051426319892067 -0
  outer loop
   vertex 0.086634904146194458 0.14319014549255371 -0.031399998813867569
   vertex 0.086634904146194458 0.14319014549255371 -5.9306620725507742e-10
   vertex 0.086296819150447845 0.14389894902706146 -0.031399998813867569
  endloop
 endfacet
 facet normal -0.87882103717052318 -0.47715153214311906 0
  outer loop
   vertex 0.086634904146194458 0.14319014549255371 -5.9306620725507742e-10
   vertex 0.086634904146194458 0.14319014549255371 -0.031399998813867569
   vertex 0.087009616196155548 0.14249999821186066 -5.9306620725507742e-10
  endloop
 endfacet
 facet normal -0.87882103717052318 -0.47715153214311906 -0
  outer loop
   vertex 0.087009616196155548 0.14249999821186066 -0.031399998813867569
   vertex 0.087009616196155548 0.14249999821186066 -5.9306620725507742e-10
   vertex 0.086634904146194458 0.14319014549255371 -0.031399998813867569
  endloop
 endfacet
 facet normal -0.85263765719764195 -0.52250265600139911 0
  outer loop
   vertex 0.087009616196155548 0.14249999821186066 -5.9306620725507742e-10
   vertex 0.087009616196155548 0.14249999821186066 -0.031399998813867569
   vertex 0.087419942021369934 0.14183041453361511 -5.9306620725507742e-10
  endloop
 endfacet
 facet normal -0.85263765719764195 -0.52250265600139911 -0
  outer loop
   vertex 0.087419942021369934 0.14183041453361511 -0.031399998813867569
   vertex 0.087419942021369934 0.14183041453361511 -5.9306620725507742e-10
   vertex 0.087009616196155548 0.14249999821186066 -0.031399998813867569
  endloop
 endfacet
 facet normal -0.82412606987975179 -0.56640640969585998 0
  outer loop
   vertex 0.087419942021369934 0.14183041453361511 -5.9306620725507742e-10
   vertex 0.087419942021369934 0.14183041453361511 -0.031399998813867569
   vertex 0.087864741683006287 0.14118322730064392 -5.9306620725507742e-10
  endloop
 endfacet
 facet normal -0.82412606987975179 -0.56640640969585998 -0
  outer loop
   vertex 0.087864741683006287 0.14118322730064392 -0.031399998813867569
   vertex 0.087864741683006287 0.14118322730064392 -5.9306620725507742e-10
   vertex 0.087419942021369934 0.14183041453361511 -0.031399998813867569
  endloop
 endfacet
 facet normal -0.79335525278845032 -0.608758936585718 0
  outer loop
   vertex 0.087864741683006287 0.14118322730064392 -5.9306620725507742e-10
   vertex 0.087864741683006287 0.14118322730064392 -0.031399998813867569
   vertex 0.088342808187007904 0.14056019484996796 -5.9306620725507742e-10
  endloop
 endfacet
 facet normal -0.79335525278845032 -0.608758936585718 -0
  outer loop
   vertex 0.088342808187007904 0.14056019484996796 -0.031399998813867569
   vertex 0.088342808187007904 0.14056019484996796 -5.9306620725507742e-10
   vertex 0.087864741683006287 0.14118322730064392 -0.031399998813867569
  endloop
 endfacet
 facet normal -0.76040061858097707 -0.64945430883293653 0
  outer loop
   vertex 0.088342808187007904 0.14056019484996796 -5.9306620725507742e-10
   vertex 0.088342808187007904 0.14056019484996796 -0.031399998813867569
   vertex 0.088852830231189728 0.13996304571628571 -5.9306620725507742e-10
  endloop
 endfacet
 facet normal -0.76040061858097707 -0.64945430883293653 -0
  outer loop
   vertex 0.088852830231189728 0.13996304571628571 -0.031399998813867569
   vertex 0.088852830231189728 0.13996304571628571 -5.9306620725507742e-10
   vertex 0.088342808187007904 0.14056019484996796 -0.031399998813867569
  endloop
 endfacet
 facet normal -0.72537453640226313 -0.68835440140904303 0
  outer loop
   vertex 0.088852830231189728 0.13996304571628571 -5.9306620725507742e-10
   vertex 0.088852830231189728 0.13996304571628571 -0.031399998813867569
   vertex 0.089393399655818939 0.1393934041261673 -5.9306620725507742e-10
  endloop
 endfacet
 facet normal -0.72537453640226313 -0.68835440140904303 0
  outer loop
   vertex 0.089393399655818939 0.1393934041261673 -5.9306620725507742e-10
   vertex 0.088852830231189728 0.13996304571628571 -0.031399998813867569
   vertex 0.089393399655818939 0.1393934041261673 -0.031399998813867569
  endloop
 endfacet
 facet normal -0.68835440140904303 -0.72537453640226313 0
  outer loop
   vertex 0.089393399655818939 0.1393934041261673 -5.9306620725507742e-10
   vertex 0.089393399655818939 0.1393934041261673 -0.031399998813867569
   vertex 0.089963041245937347 0.13885283470153809 -5.9306620725507742e-10
  endloop
 endfacet
 facet normal -0.68835440140904303 -0.72537453640226313 0
  outer loop
   vertex 0.089963041245937347 0.13885283470153809 -5.9306620725507742e-10
   vertex 0.089393399655818939 0.1393934041261673 -0.031399998813867569
   vertex 0.089963041245937347 0.13885283470153809 -0.031399998813867569
  endloop
 endfacet
 facet normal -0.64944962351738422 -0.76040462026024536 0
  outer loop
   vertex 0.089963041245937347 0.13885283470153809 -5.9306620725507742e-10
   vertex 0.089963041245937347 0.13885283470153809 -0.031399998813867569
   vertex 0.090560197830200195 0.13834281265735626 -5.9306620725507742e-10
  endloop
 endfacet
 facet normal -0.64944962351738422 -0.76040462026024536 0
  outer loop
   vertex 0.090560197830200195 0.13834281265735626 -5.9306620725507742e-10
   vertex 0.089963041245937347 0.13885283470153809 -0.031399998813867569
   vertex 0.090560197830200195 0.13834281265735626 -0.031399998813867569
  endloop
 endfacet
 facet normal -0.60876949009219727 -0.79334715473926432 0
  outer loop
   vertex 0.090560197830200195 0.13834281265735626 -5.9306620725507742e-10
   vertex 0.090560197830200195 0.13834281265735626 -0.031399998813867569
   vertex 0.091183222830295563 0.13786473870277405 -5.9306620725507742e-10
  endloop
 endfacet
 facet normal -0.60876949009219727 -0.79334715473926432 -0
  outer loop
   vertex 0.091183222830295563 0.13786473870277405 -0.031399998813867569
   vertex 0.091183222830295563 0.13786473870277405 -5.9306620725507742e-10
   vertex 0.090560197830200195 0.13834281265735626 -0.031399998813867569
  endloop
 endfacet
 facet normal -0.56640198102865236 -0.82412911360224261 0
  outer loop
   vertex 0.091183222830295563 0.13786473870277405 -5.9306620725507742e-10
   vertex 0.091183222830295563 0.13786473870277405 -0.031399998813867569
   vertex 0.091830417513847351 0.1374199390411377 -5.9306620725507742e-10
  endloop
 endfacet
 facet normal -0.56640198102865236 -0.82412911360224261 0
  outer loop
   vertex 0.091830417513847351 0.1374199390411377 -5.9306620725507742e-10
   vertex 0.091183222830295563 0.13786473870277405 -0.031399998813867569
   vertex 0.091830417513847351 0.1374199390411377 -0.031399998813867569
  endloop
 endfacet
 facet normal -0.52249575865533859 -0.8526418839038945 0
  outer loop
   vertex 0.091830417513847351 0.1374199390411377 -5.9306620725507742e-10
   vertex 0.091830417513847351 0.1374199390411377 -0.031399998813867569
   vertex 0.092500001192092896 0.13700962066650391 -5.9306620725507742e-10
  endloop
 endfacet
 facet normal -0.52249575865533859 -0.8526418839038945 0
  outer loop
   vertex 0.092500001192092896 0.13700962066650391 -5.9306620725507742e-10
   vertex 0.091830417513847351 0.1374199390411377 -0.031399998813867569
   vertex 0.092500001192092896 0.13700962066650391 -0.031399998813867569
  endloop
 endfacet
 facet normal -0.47716283791627201 -0.87881489866278995 0
  outer loop
   vertex 0.092500001192092896 0.13700962066650391 -5.9306620725507742e-10
   vertex 0.092500001192092896 0.13700962066650391 -0.031399998813867569
   vertex 0.093190141022205353 0.13663490116596222 -5.9306620725507742e-10
  endloop
 endfacet
 facet normal -0.47716283791627201 -0.87881489866278995 0
  outer loop
   vertex 0.093190141022205353 0.13663490116596222 -5.9306620725507742e-10
   vertex 0.092500001192092896 0.13700962066650391 -0.031399998813867569
   vertex 0.093190141022205353 0.13663490116596222 -0.031399998813867569
  endloop
 endfacet
 facet normal -0.43050284754642093 -0.90258921899966393 0
  outer loop
   vertex 0.093190141022205353 0.13663490116596222 -5.9306620725507742e-10
   vertex 0.093190141022205353 0.13663490116596222 -0.031399998813867569
   vertex 0.093898952007293701 0.1362968236207962 -5.9306620725507742e-10
  endloop
 endfacet
 facet normal -0.43050284754642093 -0.90258921899966393 -0
  outer loop
   vertex 0.093898952007293701 0.1362968236207962 -0.031399998813867569
   vertex 0.093898952007293701 0.1362968236207962 -5.9306620725507742e-10
   vertex 0.093190141022205353 0.13663490116596222 -0.031399998813867569
  endloop
 endfacet
 facet normal -0.38268584161088937 -0.9238785345653211 0
  outer loop
   vertex 0.093898952007293701 0.1362968236207962 -5.9306620725507742e-10
   vertex 0.093898952007293701 0.1362968236207962 -0.031399998813867569
   vertex 0.094624482095241547 0.13599629700183868 -5.9306620725507742e-10
  endloop
 endfacet
 facet normal -0.38268584161088937 -0.9238785345653211 -0
  outer loop
   vertex 0.094624482095241547 0.13599629700183868 -0.031399998813867569
   vertex 0.094624482095241547 0.13599629700183868 -5.9306620725507742e-10
   vertex 0.093898952007293701 0.1362968236207962 -0.031399998813867569
  endloop
 endfacet
 facet normal -0.33380850405775225 -0.94264090862784311 0
  outer loop
   vertex 0.094624482095241547 0.13599629700183868 -5.9306620725507742e-10
   vertex 0.094624482095241547 0.13599629700183868 -0.031399998813867569
   vertex 0.09536474198102951 0.13573415577411652 -5.9306620725507742e-10
  endloop
 endfacet
 facet normal -0.33380850405775225 -0.94264090862784311 0
  outer loop
   vertex 0.09536474198102951 0.13573415577411652 -5.9306620725507742e-10
   vertex 0.094624482095241547 0.13599629700183868 -0.031399998813867569
   vertex 0.09536474198102951 0.13573415577411652 -0.031399998813867569
  endloop
 endfacet
 facet normal -0.28401597071034318 -0.958819549436421 0
  outer loop
   vertex 0.09536474198102951 0.13573415577411652 -5.9306620725507742e-10
   vertex 0.09536474198102951 0.13573415577411652 -0.031399998813867569
   vertex 0.096117712557315826 0.135511115193367 -5.9306620725507742e-10
  endloop
 endfacet
 facet normal -0.28401597071034318 -0.958819549436421 -0
  outer loop
   vertex 0.096117712557315826 0.135511115193367 -0.031399998813867569
   vertex 0.096117712557315826 0.135511115193367 -5.9306620725507742e-10
   vertex 0.09536474198102951 0.13573415577411652 -0.031399998813867569
  endloop
 endfacet
 facet normal -0.2334483059897807 -0.97236921404911913 0
  outer loop
   vertex 0.096117712557315826 0.135511115193367 -5.9306620725507742e-10
   vertex 0.096117712557315826 0.135511115193367 -0.031399998813867569
   vertex 0.09688132256269455 0.1353277862071991 -5.9306620725507742e-10
  endloop
 endfacet
 facet normal -0.2334483059897807 -0.97236921404911913 -0
  outer loop
   vertex 0.09688132256269455 0.1353277862071991 -0.031399998813867569
   vertex 0.09688132256269455 0.1353277862071991 -5.9306620725507742e-10
   vertex 0.096117712557315826 0.135511115193367 -0.031399998813867569
  endloop
 endfacet
 facet normal -0.18223398510424416 -0.98325519305672937 0
  outer loop
   vertex 0.09688132256269455 0.1353277862071991 -5.9306620725507742e-10
   vertex 0.09688132256269455 0.1353277862071991 -0.031399998813867569
   vertex 0.097653485834598541 0.13518467545509338 -5.9306620725507742e-10
  endloop
 endfacet
 facet normal -0.18223398510424416 -0.98325519305672937 0
  outer loop
   vertex 0.097653485834598541 0.13518467545509338 -5.9306620725507742e-10
   vertex 0.09688132256269455 0.1353277862071991 -0.031399998813867569
   vertex 0.097653485834598541 0.13518467545509338 -0.031399998813867569
  endloop
 endfacet
 facet normal -0.13052912056161067 -0.99144447584593076 0
  outer loop
   vertex 0.097653485834598541 0.13518467545509338 -5.9306620725507742e-10
   vertex 0.097653485834598541 0.13518467545509338 -0.031399998813867569
   vertex 0.098432071506977081 0.13508217036724091 -5.9306620725507742e-10
  endloop
 endfacet
 facet normal -0.13052912056161067 -0.99144447584593076 -0
  outer loop
   vertex 0.098432071506977081 0.13508217036724091 -0.031399998813867569
   vertex 0.098432071506977081 0.13508217036724091 -5.9306620725507742e-10
   vertex 0.097653485834598541 0.13518467545509338 -0.031399998813867569
  endloop
 endfacet
 facet normal -0.078460812279643868 -0.99691719863608441 0
  outer loop
   vertex 0.098432071506977081 0.13508217036724091 -5.9306620725507742e-10
   vertex 0.098432071506977081 0.13508217036724091 -0.031399998813867569
   vertex 0.099214963614940643 0.13502055406570435 -5.9306620725507742e-10
  endloop
 endfacet
 facet normal -0.078460812279643868 -0.99691719863608441 0
  outer loop
   vertex 0.099214963614940643 0.13502055406570435 -5.9306620725507742e-10
   vertex 0.098432071506977081 0.13508217036724091 -0.031399998813867569
   vertex 0.099214963614940643 0.13502055406570435 -0.031399998813867569
  endloop
 endfacet
 facet normal -0.026166464127957961 -0.99965759945845478 0
  outer loop
   vertex 0.099214963614940643 0.13502055406570435 -5.9306620725507742e-10
   vertex 0.099214963614940643 0.13502055406570435 -0.031399998813867569
   vertex 0.10000000149011612 0.13500000536441803 -5.9306620725507742e-10
  endloop
 endfacet
 facet normal -0.026166464127957961 -0.99965759945845478 -0
  outer loop
   vertex 0.10000000149011612 0.13500000536441803 -0.031399998813867569
   vertex 0.10000000149011612 0.13500000536441803 -5.9306620725507742e-10
   vertex 0.099214963614940643 0.13502055406570435 -0.031399998813867569
  endloop
 endfacet
 facet normal 0.026166464127957961 -0.99965759945845478 0
  outer loop
   vertex 0.10000000149011612 0.13500000536441803 -5.9306620725507742e-10
   vertex 0.10000000149011612 0.13500000536441803 -0.031399998813867569
   vertex 0.1007850393652916 0.13502055406570435 -5.9306620725507742e-10
  endloop
 endfacet
 facet normal 0.026166464127957961 -0.99965759945845478 0
  outer loop
   vertex 0.1007850393652916 0.13502055406570435 -0.031399998813867569
   vertex 0.1007850393652916 0.13502055406570435 -5.9306620725507742e-10
   vertex 0.10000000149011612 0.13500000536441803 -0.031399998813867569
  endloop
 endfacet
 facet normal 0.078461554381082765 -0.9969171402298711 0
  outer loop
   vertex 0.1007850393652916 0.13502055406570435 -5.9306620725507742e-10
   vertex 0.1007850393652916 0.13502055406570435 -0.031399998813867569
   vertex 0.10156792402267456 0.13508217036724091 -5.9306620725507742e-10
  endloop
 endfacet
 facet normal 0.078461554381082765 -0.9969171402298711 0
  outer loop
   vertex 0.10156792402267456 0.13508217036724091 -0.031399998813867569
   vertex 0.10156792402267456 0.13508217036724091 -5.9306620725507742e-10
   vertex 0.1007850393652916 0.13502055406570435 -0.031399998813867569
  endloop
 endfacet
 facet normal 0.13052789277224797 -0.9914446374903827 0
  outer loop
   vertex 0.10156792402267456 0.13508217036724091 -5.9306620725507742e-10
   vertex 0.10156792402267456 0.13508217036724091 -0.031399998813867569
   vertex 0.1023465171456337 0.13518467545509338 -5.9306620725507742e-10
  endloop
 endfacet
 facet normal 0.13052789277224797 -0.9914446374903827 0
  outer loop
   vertex 0.1023465171456337 0.13518467545509338 -0.031399998813867569
   vertex 0.1023465171456337 0.13518467545509338 -5.9306620725507742e-10
   vertex 0.10156792402267456 0.13508217036724091 -0.031399998813867569
  endloop
 endfacet
 facet normal 0.18223568509605162 -0.98325487798310607 0
  outer loop
   vertex 0.1023465171456337 0.13518467545509338 -5.9306620725507742e-10
   vertex 0.1023465171456337 0.13518467545509338 -0.031399998813867569
   vertex 0.10311867296695709 0.1353277862071991 -5.9306620725507742e-10
  endloop
 endfacet
 facet normal 0.18223568509605162 -0.98325487798310607 0
  outer loop
   vertex 0.10311867296695709 0.1353277862071991 -0.031399998813867569
   vertex 0.10311867296695709 0.1353277862071991 -5.9306620725507742e-10
   vertex 0.1023465171456337 0.13518467545509338 -0.031399998813867569
  endloop
 endfacet
 facet normal 0.2334483059897807 -0.97236921404911913 0
  outer loop
   vertex 0.10311867296695709 0.1353277862071991 -5.9306620725507742e-10
   vertex 0.10311867296695709 0.1353277862071991 -0.031399998813867569
   vertex 0.10388228297233582 0.135511115193367 -5.9306620725507742e-10
  endloop
 endfacet
 facet normal 0.2334483059897807 -0.97236921404911913 0
  outer loop
   vertex 0.10388228297233582 0.135511115193367 -0.031399998813867569
   vertex 0.10388228297233582 0.135511115193367 -5.9306620725507742e-10
   vertex 0.10311867296695709 0.1353277862071991 -0.031399998813867569
  endloop
 endfacet
 facet normal 0.28401597071034318 -0.958819549436421 0
  outer loop
   vertex 0.10388228297233582 0.135511115193367 -5.9306620725507742e-10
   vertex 0.10388228297233582 0.135511115193367 -0.031399998813867569
   vertex 0.10463525354862213 0.13573415577411652 -5.9306620725507742e-10
  endloop
 endfacet
 facet normal 0.28401597071034318 -0.958819549436421 0
  outer loop
   vertex 0.10463525354862213 0.13573415577411652 -0.031399998813867569
   vertex 0.10463525354862213 0.13573415577411652 -5.9306620725507742e-10
   vertex 0.10388228297233582 0.135511115193367 -0.031399998813867569
  endloop
 endfacet
 facet normal 0.33380551872858716 -0.94264196578888793 0
  outer loop
   vertex 0.10463525354862213 0.13573415577411652 -5.9306620725507742e-10
   vertex 0.10463525354862213 0.13573415577411652 -0.031399998813867569
   vertex 0.10537552088499069 0.13599629700183868 -5.9306620725507742e-10
  endloop
 endfacet
 facet normal 0.33380551872858716 -0.94264196578888793 0
  outer loop
   vertex 0.10537552088499069 0.13599629700183868 -0.031399998813867569
   vertex 0.10537552088499069 0.13599629700183868 -5.9306620725507742e-10
   vertex 0.10463525354862213 0.13573415577411652 -0.031399998813867569
  endloop
 endfacet
 facet normal 0.38268584161088937 -0.9238785345653211 0
  outer loop
   vertex 0.10537552088499069 0.13599629700183868 -5.9306620725507742e-10
   vertex 0.10537552088499069 0.13599629700183868 -0.031399998813867569
   vertex 0.10610105097293854 0.1362968236207962 -5.9306620725507742e-10
  endloop
 endfacet
 facet normal 0.38268584161088937 -0.9238785345653211 0
  outer loop
   vertex 0.10610105097293854 0.1362968236207962 -0.031399998813867569
   vertex 0.10610105097293854 0.1362968236207962 -5.9306620725507742e-10
   vertex 0.10537552088499069 0.13599629700183868 -0.031399998813867569
  endloop
 endfacet
 facet normal 0.43050653408926404 -0.90258746064104456 0
  outer loop
   vertex 0.10610105097293854 0.1362968236207962 -5.9306620725507742e-10
   vertex 0.10610105097293854 0.1362968236207962 -0.031399998813867569
   vertex 0.10680985450744629 0.13663490116596222 -5.9306620725507742e-10
  endloop
 endfacet
 facet normal 0.43050653408926404 -0.90258746064104456 0
  outer loop
   vertex 0.10680985450744629 0.13663490116596222 -0.031399998813867569
   vertex 0.10680985450744629 0.13663490116596222 -5.9306620725507742e-10
   vertex 0.10610105097293854 0.1362968236207962 -0.031399998813867569
  endloop
 endfacet
 facet normal 0.47715885948947007 -0.8788170587845392 0
  outer loop
   vertex 0.10680985450744629 0.13663490116596222 -5.9306620725507742e-10
   vertex 0.10680985450744629 0.13663490116596222 -0.031399998813867569
   vertex 0.10750000178813934 0.13700962066650391 -5.9306620725507742e-10
  endloop
 endfacet
 facet normal 0.47715885948947007 -0.8788170587845392 0
  outer loop
   vertex 0.10750000178813934 0.13700962066650391 -5.9306620725507742e-10
   vertex 0.10680985450744629 0.13663490116596222 -0.031399998813867569
   vertex 0.10750000178813934 0.13700962066650391 -0.031399998813867569
  endloop
 endfacet
 facet normal 0.52249575865533859 -0.8526418839038945 0
  outer loop
   vertex 0.10750000178813934 0.13700962066650391 -5.9306620725507742e-10
   vertex 0.10750000178813934 0.13700962066650391 -0.031399998813867569
   vertex 0.10816958546638489 0.1374199390411377 -5.9306620725507742e-10
  endloop
 endfacet
 facet normal 0.52249575865533859 -0.8526418839038945 0
  outer loop
   vertex 0.10816958546638489 0.1374199390411377 -5.9306620725507742e-10
   vertex 0.10750000178813934 0.13700962066650391 -0.031399998813867569
   vertex 0.10816958546638489 0.1374199390411377 -0.031399998813867569
  endloop
 endfacet
 facet normal 0.56640198102865236 -0.82412911360224261 0
  outer loop
   vertex 0.10816958546638489 0.1374199390411377 -5.9306620725507742e-10
   vertex 0.10816958546638489 0.1374199390411377 -0.031399998813867569
   vertex 0.10881678014993668 0.13786473870277405 -5.9306620725507742e-10
  endloop
 endfacet
 facet normal 0.56640198102865236 -0.82412911360224261 0
  outer loop
   vertex 0.10881678014993668 0.13786473870277405 -5.9306620725507742e-10
   vertex 0.10816958546638489 0.1374199390411377 -0.031399998813867569
   vertex 0.10881678014993668 0.13786473870277405 -0.031399998813867569
  endloop
 endfacet
 facet normal 0.60876949009219727 -0.79334715473926432 0
  outer loop
   vertex 0.10881678014993668 0.13786473870277405 -5.9306620725507742e-10
   vertex 0.10881678014993668 0.13786473870277405 -0.031399998813867569
   vertex 0.10943980515003204 0.13834281265735626 -5.9306620725507742e-10
  endloop
 endfacet
 facet normal 0.60876949009219727 -0.79334715473926432 0
  outer loop
   vertex 0.10943980515003204 0.13834281265735626 -0.031399998813867569
   vertex 0.10943980515003204 0.13834281265735626 -5.9306620725507742e-10
   vertex 0.10881678014993668 0.13786473870277405 -0.031399998813867569
  endloop
 endfacet
 facet normal 0.64944962351738422 -0.76040462026024536 0
  outer loop
   vertex 0.10943980515003204 0.13834281265735626 -5.9306620725507742e-10
   vertex 0.10943980515003204 0.13834281265735626 -0.031399998813867569
   vertex 0.11003696173429489 0.13885283470153809 -5.9306620725507742e-10
  endloop
 endfacet
 facet normal 0.64944962351738422 -0.76040462026024536 0
  outer loop
   vertex 0.11003696173429489 0.13885283470153809 -5.9306620725507742e-10
   vertex 0.10943980515003204 0.13834281265735626 -0.031399998813867569
   vertex 0.11003696173429489 0.13885283470153809 -0.031399998813867569
  endloop
 endfacet
 facet normal 0.68835440140904303 -0.72537453640226313 0
  outer loop
   vertex 0.11003696173429489 0.13885283470153809 -5.9306620725507742e-10
   vertex 0.11003696173429489 0.13885283470153809 -0.031399998813867569
   vertex 0.1106066033244133 0.1393934041261673 -5.9306620725507742e-10
  endloop
 endfacet
 facet normal 0.68835440140904303 -0.72537453640226313 0
  outer loop
   vertex 0.1106066033244133 0.1393934041261673 -5.9306620725507742e-10
   vertex 0.11003696173429489 0.13885283470153809 -0.031399998813867569
   vertex 0.1106066033244133 0.1393934041261673 -0.031399998813867569
  endloop
 endfacet
 facet normal 0.72537453640226313 -0.68835440140904303 0
  outer loop
   vertex 0.1106066033244133 0.1393934041261673 -5.9306620725507742e-10
   vertex 0.1106066033244133 0.1393934041261673 -0.031399998813867569
   vertex 0.11114717274904251 0.13996304571628571 -5.9306620725507742e-10
  endloop
 endfacet
 facet normal 0.72537453640226313 -0.68835440140904303 0
  outer loop
   vertex 0.11114717274904251 0.13996304571628571 -5.9306620725507742e-10
   vertex 0.1106066033244133 0.1393934041261673 -0.031399998813867569
   vertex 0.11114717274904251 0.13996304571628571 -0.031399998813867569
  endloop
 endfacet
 facet normal 0.76040530392708372 -0.64944882304886786 0
  outer loop
   vertex 0.11114717274904251 0.13996304571628571 -5.9306620725507742e-10
   vertex 0.11114717274904251 0.13996304571628571 -0.031399998813867569
   vertex 0.11165718734264374 0.14056019484996796 -5.9306620725507742e-10
  endloop
 endfacet
 facet normal 0.76040530392708372 -0.64944882304886786 0
  outer loop
   vertex 0.11165718734264374 0.14056019484996796 -0.031399998813867569
   vertex 0.11165718734264374 0.14056019484996796 -5.9306620725507742e-10
   vertex 0.11114717274904251 0.13996304571628571 -0.031399998813867569
  endloop
 endfacet
 facet normal 0.79335525278845032 -0.608758936585718 0
  outer loop
   vertex 0.11165718734264374 0.14056019484996796 -5.9306620725507742e-10
   vertex 0.11165718734264374 0.14056019484996796 -0.031399998813867569
   vertex 0.11213525384664536 0.14118322730064392 -5.9306620725507742e-10
  endloop
 endfacet
 facet normal 0.79335525278845032 -0.608758936585718 0
  outer loop
   vertex 0.11213525384664536 0.14118322730064392 -0.031399998813867569
   vertex 0.11213525384664536 0.14118322730064392 -5.9306620725507742e-10
   vertex 0.11165718734264374 0.14056019484996796 -0.031399998813867569
  endloop
 endfacet
 facet normal 0.82412164118470221 -0.5664128534302808 0
  outer loop
   vertex 0.11213525384664536 0.14118322730064392 -5.9306620725507742e-10
   vertex 0.11213525384664536 0.14118322730064392 -0.031399998813867569
   vertex 0.1125800609588623 0.14183041453361511 -5.9306620725507742e-10
  endloop
 endfacet
 facet normal 0.82412164118470221 -0.5664128534302808 0
  outer loop
   vertex 0.1125800609588623 0.14183041453361511 -0.031399998813867569
   vertex 0.1125800609588623 0.14183041453361511 -5.9306620725507742e-10
   vertex 0.11213525384664536 0.14118322730064392 -0.031399998813867569
  endloop
 endfacet
 facet normal 0.8526418839038945 -0.52249575865533859 0
  outer loop
   vertex 0.1125800609588623 0.14183041453361511 -5.9306620725507742e-10
   vertex 0.1125800609588623 0.14183041453361511 -0.031399998813867569
   vertex 0.11299037933349609 0.14249999821186066 -5.9306620725507742e-10
  endloop
 endfacet
 facet normal 0.8526418839038945 -0.52249575865533859 0
  outer loop
   vertex 0.11299037933349609 0.14249999821186066 -5.9306620725507742e-10
   vertex 0.1125800609588623 0.14183041453361511 -0.031399998813867569
   vertex 0.11299037933349609 0.14249999821186066 -0.031399998813867569
  endloop
 endfacet
 facet normal 0.8788170587845392 -0.47715885948947007 0
  outer loop
   vertex 0.11299037933349609 0.14249999821186066 -5.9306620725507742e-10
   vertex 0.11299037933349609 0.14249999821186066 -0.031399998813867569
   vertex 0.11336509883403778 0.14319014549255371 -5.9306620725507742e-10
  endloop
 endfacet
 facet normal 0.8788170587845392 -0.47715885948947007 0
  outer loop
   vertex 0.11336509883403778 0.14319014549255371 -5.9306620725507742e-10
   vertex 0.11299037933349609 0.14249999821186066 -0.031399998813867569
   vertex 0.11336509883403778 0.14319014549255371 -0.031399998813867569
  endloop
 endfacet
 facet normal 0.90258377405218759 -0.43051426319892067 0
  outer loop
   vertex 0.11336509883403778 0.14319014549255371 -5.9306620725507742e-10
   vertex 0.11336509883403778 0.14319014549255371 -0.031399998813867569
   vertex 0.11370318382978439 0.14389894902706146 -5.9306620725507742e-10
  endloop
 endfacet
 facet normal 0.90258377405218759 -0.43051426319892067 0
  outer loop
   vertex 0.11370318382978439 0.14389894902706146 -0.031399998813867569
   vertex 0.11370318382978439 0.14389894902706146 -5.9306620725507742e-10
   vertex 0.11336509883403778 0.14319014549255371 -0.031399998813867569
  endloop
 endfacet
 facet normal 0.92388327823069594 -0.38267438927331199 0
  outer loop
   vertex 0.11370318382978439 0.14389894902706146 -5.9306620725507742e-10
   vertex 0.11370318382978439 0.14389894902706146 -0.031399998813867569
   vertex 0.11400370299816132 0.1446244865655899 -5.9306620725507742e-10
  endloop
 endfacet
 facet normal 0.92388327823069594 -0.38267438927331199 0
  outer loop
   vertex 0.11400370299816132 0.1446244865655899 -0.031399998813867569
   vertex 0.11400370299816132 0.1446244865655899 -5.9306620725507742e-10
   vertex 0.11370318382978439 0.14389894902706146 -0.031399998813867569
  endloop
 endfacet
 facet normal 0.94264090862784311 -0.33380850405775225 0
  outer loop
   vertex 0.11400370299816132 0.1446244865655899 -5.9306620725507742e-10
   vertex 0.11400370299816132 0.1446244865655899 -0.031399998813867569
   vertex 0.11426584422588348 0.14536474645137787 -5.9306620725507742e-10
  endloop
 endfacet
 facet normal 0.94264090862784311 -0.33380850405775225 0
  outer loop
   vertex 0.11426584422588348 0.14536474645137787 -5.9306620725507742e-10
   vertex 0.11400370299816132 0.1446244865655899 -0.031399998813867569
   vertex 0.11426584422588348 0.14536474645137787 -0.031399998813867569
  endloop
 endfacet
 facet normal 0.958819549436421 -0.28401597071034318 0
  outer loop
   vertex 0.11426584422588348 0.14536474645137787 -5.9306620725507742e-10
   vertex 0.11426584422588348 0.14536474645137787 -0.031399998813867569
   vertex 0.114488884806633 0.14611771702766418 -5.9306620725507742e-10
  endloop
 endfacet
 facet normal 0.958819549436421 -0.28401597071034318 0
  outer loop
   vertex 0.114488884806633 0.14611771702766418 -0.031399998813867569
   vertex 0.114488884806633 0.14611771702766418 -5.9306620725507742e-10
   vertex 0.11426584422588348 0.14536474645137787 -0.031399998813867569
  endloop
 endfacet
 facet normal 0.97236921404911913 -0.2334483059897807 0
  outer loop
   vertex 0.114488884806633 0.14611771702766418 -5.9306620725507742e-10
   vertex 0.114488884806633 0.14611771702766418 -0.031399998813867569
   vertex 0.1146722137928009 0.14688132703304291 -5.9306620725507742e-10
  endloop
 endfacet
 facet normal 0.97236921404911913 -0.2334483059897807 0
  outer loop
   vertex 0.1146722137928009 0.14688132703304291 -0.031399998813867569
   vertex 0.1146722137928009 0.14688132703304291 -5.9306620725507742e-10
   vertex 0.114488884806633 0.14611771702766418 -0.031399998813867569
  endloop
 endfacet
 facet normal 0.98325456290066504 -0.18223738511903176 0
  outer loop
   vertex 0.1146722137928009 0.14688132703304291 -5.9306620725507742e-10
   vertex 0.1146722137928009 0.14688132703304291 -0.031399998813867569
   vertex 0.11481532454490662 0.14765347540378571 -5.9306620725507742e-10
  endloop
 endfacet
 facet normal 0.98325456290066504 -0.18223738511903176 0
  outer loop
   vertex 0.11481532454490662 0.14765347540378571 -0.031399998813867569
   vertex 0.11481532454490662 0.14765347540378571 -5.9306620725507742e-10
   vertex 0.1146722137928009 0.14688132703304291 -0.031399998813867569
  endloop
 endfacet
 facet normal 0.9914447991302735 -0.13052666500578267 0
  outer loop
   vertex 0.11481532454490662 0.14765347540378571 -5.9306620725507742e-10
   vertex 0.11481532454490662 0.14765347540378571 -0.031399998813867569
   vertex 0.11491782963275909 0.14843207597732544 -5.9306620725507742e-10
  endloop
 endfacet
 facet normal 0.9914447991302735 -0.13052666500578267 0
  outer loop
   vertex 0.11491782963275909 0.14843207597732544 -0.031399998813867569
   vertex 0.11491782963275909 0.14843207597732544 -5.9306620725507742e-10
   vertex 0.11481532454490662 0.14765347540378571 -0.031399998813867569
  endloop
 endfacet
 facet normal 0.99691708182200023 -0.078462296496516259 0
  outer loop
   vertex 0.11491782963275909 0.14843207597732544 -5.9306620725507742e-10
   vertex 0.11491782963275909 0.14843207597732544 -0.031399998813867569
   vertex 0.11497944593429565 0.14921495318412781 -5.9306620725507742e-10
  endloop
 endfacet
 facet normal 0.99691708182200023 -0.078462296496516259 0
  outer loop
   vertex 0.11497944593429565 0.14921495318412781 -0.031399998813867569
   vertex 0.11497944593429565 0.14921495318412781 -5.9306620725507742e-10
   vertex 0.11491782963275909 0.14843207597732544 -0.031399998813867569
  endloop
 endfacet
 facet normal 0.99965736424569684 -0.026175448598757471 0
  outer loop
   vertex 0.11497944593429565 0.14921495318412781 -5.9306620725507742e-10
   vertex 0.11497944593429565 0.14921495318412781 -0.031399998813867569
   vertex 0.11500000208616257 0.15000000596046448 -5.9306620725507742e-10
  endloop
 endfacet
 facet normal 0.99965736424569684 -0.026175448598757471 0
  outer loop
   vertex 0.11500000208616257 0.15000000596046448 -5.9306620725507742e-10
   vertex 0.11497944593429565 0.14921495318412781 -0.031399998813867569
   vertex 0.11500000208616257 0.15000000596046448 -0.031399998813867569
  endloop
 endfacet
endsolid
